<svg xml:space="preserve" viewBox="0 0 100 100" y="0" x="0" xmlns="http://www.w3.org/2000/svg" id="圖層_1" version="1.1" style="height: 100%; width: 100%; background: rgb(255, 255, 255);" width="200px" height="200px"><g class="ldl-scale" style="transform-origin: 50% 50%; transform: rotate(0deg) scale(0.8, 0.8);"><g class="ldl-ani"><g class="ldl-layer"><g class="ldl-ani"><g><g class="ldl-layer"><g class="ldl-ani" style="transform-origin: 50px 50px; animation: 1.11111s linear -0.648148s infinite normal forwards running static-183cd4d6-80a9-4d06-a1cb-6da601b3d4d5;"><path fill="#77a4bd" d="M11.6 7.5l20.8 47.4c1.1 2.5 4 3.7 6.6 2.6l13.8-6c2.5-1.1 3.7-4 2.6-6.6L38.9 7.5H11.6z" style="fill: rgb(119, 164, 189);"></path></g></g><g class="ldl-layer"><g class="ldl-ani" style="transform-origin: 50px 50px; animation: 1.11111s linear -0.740741s infinite normal forwards running static-183cd4d6-80a9-4d06-a1cb-6da601b3d4d5;"><path fill="#77a4bd" d="M61.1 7.5L44.7 44.9c-1.1 2.5 0 5.5 2.6 6.6l13.8 6c2.5 1.1 5.5 0 6.6-2.6L88.4 7.5H61.1z" style="fill: rgb(119, 164, 189);"></path></g></g></g></g></g><g class="ldl-layer"><g class="ldl-ani"><g><g class="ldl-layer"><g class="ldl-ani" style="transform-origin: 50px 50px; animation: 1.11111s linear -0.833333s infinite normal forwards running static-183cd4d6-80a9-4d06-a1cb-6da601b3d4d5;"><path fill="#8a8a8a" d="M65.7 34L34.5 88.1c4.7 2.8 10.1 4.4 15.9 4.4 17.3 0 31.2-14 31.2-31.2.1-11.7-6.4-21.9-15.9-27.3z" style="fill: rgb(138, 138, 138);"></path></g></g><g class="ldl-layer"><g class="ldl-ani" style="transform-origin: 50px 50px; animation: 1.11111s linear -0.925926s infinite normal forwards running static-183cd4d6-80a9-4d06-a1cb-6da601b3d4d5;"><path fill="#999" d="M50.4 30c-17.3 0-31.2 14-31.2 31.2 0 11.4 6.1 21.4 15.3 26.9L65.7 34c-4.5-2.5-9.7-4-15.3-4z" style="fill: rgb(153, 153, 153);"></path></g></g><g class="ldl-layer"><g class="ldl-ani" style="transform-origin: 50px 50px; animation: 1.11111s linear -1.01852s infinite normal forwards running static-183cd4d6-80a9-4d06-a1cb-6da601b3d4d5;"><path fill="#e0e0e0" d="M60.1 43.8l-20 34.6c3 1.8 6.5 2.9 10.3 2.9 11 0 20-9 20-20 0-7.6-4.1-14.1-10.3-17.5z" style="fill: rgb(224, 224, 224);"></path></g></g><g class="ldl-layer"><g class="ldl-ani" style="transform-origin: 50px 50px; animation: 1.11111s linear -1.11111s infinite normal forwards running static-183cd4d6-80a9-4d06-a1cb-6da601b3d4d5;"><path fill="#fff" d="M50.4 41.2c-11 0-20 9-20 20 0 7.3 3.9 13.6 9.7 17.1l20-34.6c-2.9-1.5-6.2-2.5-9.7-2.5z" style="fill: rgb(255, 255, 255);"></path></g></g></g></g></g></g></g></svg>